HIERARCHY
ROOT Hips
{
	OFFSET 0.000000 0.000000 0.000000 
	CHANNELS 6 Xposition Yposition Zposition Zrotation Yrotation Xrotation
	JOINT LHipJoint
	{
		OFFSET 0.000000 0.000000 0.000000 
		CHANNELS 3 Zrotation Yrotation Xrotation
		JOINT LeftUpLeg
		{
			OFFSET 1.091560 -1.614060 0.765000 
			CHANNELS 3 Zrotation Yrotation Xrotation
			JOINT LeftLeg
			{
				OFFSET 2.337500 -6.422250 0.000000 
				CHANNELS 3 Zrotation Yrotation Xrotation
				JOINT LeftFoot
				{
					OFFSET 2.492470 -6.848000 0.000000 
					CHANNELS 3 Zrotation Yrotation Xrotation
					JOINT LeftToeBase
					{
						OFFSET 0.153120 -0.420690 1.454610 
						CHANNELS 3 Zrotation Yrotation Xrotation
						End Site
						{
							OFFSET 0.000000 -0.000000 0.770460 
						}
					}
				}
			}
		}
	}
	JOINT RHipJoint
	{
		OFFSET 0.000000 0.000000 0.000000 
		CHANNELS 3 Zrotation Yrotation Xrotation
		JOINT RightUpLeg
		{
			OFFSET -0.998830 -1.614060 0.765000 
			CHANNELS 3 Zrotation Yrotation Xrotation
			JOINT RightLeg
			{
				OFFSET -2.368770 -6.508150 0.000000 
				CHANNELS 3 Zrotation Yrotation Xrotation
				JOINT RightFoot
				{
					OFFSET -2.534520 -6.963530 0.000000 
					CHANNELS 3 Zrotation Yrotation Xrotation
					JOINT RightToeBase
					{
						OFFSET -0.131560 -0.361450 1.632370 
						CHANNELS 3 Zrotation Yrotation Xrotation
						End Site
						{
							OFFSET -0.000000 -0.000000 0.849790 
						}
					}
				}
			}
		}
	}
	JOINT LowerBack
	{
		OFFSET 0.000000 0.000000 0.000000 
		CHANNELS 3 Zrotation Yrotation Xrotation
		JOINT Spine
		{
			OFFSET -0.024310 1.982420 -0.136160 
			CHANNELS 3 Zrotation Yrotation Xrotation
			JOINT Spine1
			{
				OFFSET 0.036290 1.989740 -0.029540 
				CHANNELS 3 Zrotation Yrotation Xrotation
				JOINT Neck
				{
					OFFSET 0.000000 0.000000 0.000000 
					CHANNELS 3 Zrotation Yrotation Xrotation
					JOINT Neck1
					{
						OFFSET 0.093490 1.407830 0.223330 
						CHANNELS 3 Zrotation Yrotation Xrotation
						JOINT Head
						{
							OFFSET -0.042730 1.445000 -0.064950 
							CHANNELS 3 Zrotation Yrotation Xrotation
							End Site
							{
								OFFSET -0.022510 1.446000 -0.045440 
							}
						}
					}
				}
				JOINT LeftShoulder
				{
					OFFSET 0.000000 0.000000 0.000000 
					CHANNELS 3 Zrotation Yrotation Xrotation
					JOINT LeftArm
					{
						OFFSET 3.491370 0.851260 -0.297400 
						CHANNELS 3 Zrotation Yrotation Xrotation
						JOINT LeftForeArm
						{
							OFFSET 5.060350 -0.000000 0.000000 
							CHANNELS 3 Zrotation Yrotation Xrotation
							JOINT LeftHand
							{
								OFFSET 3.147800 -0.000000 0.000000 
								CHANNELS 3 Zrotation Yrotation Xrotation
								JOINT LeftFingerBase
								{
									OFFSET 0.000000 0.000000 0.000000 
									CHANNELS 3 Zrotation Yrotation Xrotation
									JOINT LeftHandIndex1
									{
										OFFSET 0.606750 -0.000000 0.000000 
										CHANNELS 3 Zrotation Yrotation Xrotation
										End Site
										{
											OFFSET 0.489180 -0.000000 0.000000 
										}
									}
								}
								JOINT LThumb
								{
									OFFSET 0.000000 0.000000 0.000000 
									CHANNELS 3 Zrotation Yrotation Xrotation
									End Site
									{
										OFFSET 0.496640 -0.000000 0.496640 
									}
								}
							}
						}
					}
				}
				JOINT RightShoulder
				{
					OFFSET 0.000000 0.000000 0.000000 
					CHANNELS 3 Zrotation Yrotation Xrotation
					JOINT RightArm
					{
						OFFSET -3.281010 0.697070 0.007470 
						CHANNELS 3 Zrotation Yrotation Xrotation
						JOINT RightForeArm
						{
							OFFSET -5.122730 -0.000000 -0.000000 
							CHANNELS 3 Zrotation Yrotation Xrotation
							JOINT RightHand
							{
								OFFSET -3.422000 -0.000000 0.000000 
								CHANNELS 3 Zrotation Yrotation Xrotation
								JOINT RightFingerBase
								{
									OFFSET 0.000000 0.000000 0.000000 
									CHANNELS 3 Zrotation Yrotation Xrotation
									JOINT RightHandIndex1
									{
										OFFSET -0.704600 -0.000000 0.000000 
										CHANNELS 3 Zrotation Yrotation Xrotation
										End Site
										{
											OFFSET -0.568070 -0.000000 0.000000 
										}
									}
								}
								JOINT RThumb
								{
									OFFSET 0.000000 0.000000 0.000000 
									CHANNELS 3 Zrotation Yrotation Xrotation
									End Site
									{
										OFFSET -0.576740 -0.000000 0.576740 
									}
								}
							}
						}
					}
				}
			}
		}
	}
}
MOTION
Frames: 4
Frame Time: 0.008333
0.000000 15.999995 0.000000 536.859985 97.890999 548.768982 0.000000 0.000000 0.000000 -22.652100 7.257700 15.452800 0.000000 -0.000000 -0.000000 0.137900 1.948700 -8.016000 0.079900 -1.823700 -5.018700 0.000000 0.000000 0.000000 13.950300 19.631100 -32.986198 -1.648800 -8.092600 22.995800 -0.068000 -0.591800 -5.179500 -0.120500 -2.238200 6.164500 -3.281200 -5.459800 -3.941400 3.232000 -7.202400 -0.417600 4.681700 -3.651200 2.590700 -0.237700 -1.752300 -2.488600 0.320400 -2.306900 -3.023700 0.128600 -1.143800 -0.502000 0.000000 -0.000000 0.000000 -95.106003 -6.261700 20.167900 6.231900 -10.648300 -0.581300 -0.000000 -0.000000 11.413800 16.195900 43.968102 11.400600 -7.125000 0.000000 -0.000000 -35.669899 72.372902 -24.040300 0.000000 -0.000000 0.000000 88.708801 -7.776500 -23.162100 -5.068700 8.700300 -0.385800 0.000000 0.000000 39.528900 -25.422199 34.370098 -15.020300 7.125000 -0.000000 -0.000000 3.996400 7.075400 4.468500 
0.000000 15.999995 0.000000 535.067993 97.799797 547.106018 0.000000 0.000000 0.000000 -22.242399 7.332700 15.665200 0.000000 -0.000000 -0.000000 0.095600 1.707100 -6.731000 0.085900 -1.890200 -5.202300 0.000000 0.000000 0.000000 14.752300 18.712200 -33.309399 -1.758400 -8.343500 23.762400 -0.058800 0.163300 -4.523000 -0.104300 -2.082200 5.732800 -3.252800 -5.680300 -4.078400 3.690400 -7.502600 -0.482700 5.103300 -3.804600 2.692200 -1.309500 -1.519800 -2.090500 0.685300 -1.974000 -3.252000 0.419700 -0.967900 -0.624400 0.000000 -0.000000 0.000000 -95.842796 -6.182800 17.922199 6.225400 -10.637600 -0.580100 -0.000000 -0.000000 12.596300 15.973000 43.921001 11.230200 -7.125000 0.000000 -0.000000 -35.809101 72.259003 -24.056101 0.000000 -0.000000 0.000000 87.859100 -7.411300 -21.295900 -4.969400 8.532800 -0.370900 0.000000 0.000000 38.791401 -25.686300 34.064701 -15.077900 7.125000 -0.000000 -0.000000 3.795200 6.828700 4.228300 
0.000000 15.999995 0.000000 531.513977 98.919800 542.943970 0.000000 0.000000 0.000000 -21.665701 8.971300 16.546700 0.000000 0.000000 0.000000 0.071500 1.547000 -5.869900 0.065000 -1.644300 -4.523700 0.000000 0.000000 0.000000 16.287399 17.863701 -32.772999 -1.871000 -8.592000 24.527201 -0.067200 1.687300 -4.601900 -0.024300 -1.005700 2.764400 -2.260700 -5.033800 -4.337900 3.649300 -6.685800 0.007700 4.535800 -3.394700 3.130100 -1.347500 -1.744700 -2.124400 0.648200 -2.273200 -3.296500 0.414200 -1.116400 -0.629500 -0.000000 0.000000 0.000000 -95.948502 -6.230800 17.742599 6.239600 -10.661300 -0.582800 -0.000000 -0.000000 12.894000 15.631700 44.216000 11.041100 -7.125000 0.000000 -0.000000 -36.835999 72.357201 -24.872400 -0.000000 0.000000 0.000000 87.944000 -7.114400 -20.732500 -5.019400 8.617200 -0.378400 0.000000 0.000000 38.426701 -26.683001 33.658699 -15.565200 7.125000 -0.000000 -0.000000 3.172500 6.664900 3.524400 
0.000000 15.999995 0.000000 530.562012 98.581596 541.741028 0.000000 0.000000 0.000000 -21.276699 8.935100 17.247900 0.000000 -0.000000 -0.000000 0.050700 1.274900 -4.927100 0.021600 -0.948500 -2.607000 0.000000 0.000000 0.000000 16.715799 17.336700 -32.475899 -1.964100 -8.790800 25.143101 -0.078900 1.413600 -5.000900 -0.020500 -0.924800 2.541900 -2.071000 -4.930700 -4.105200 3.593800 -6.559000 0.127100 4.399300 -3.329100 3.082500 -1.029400 -1.929800 -2.033400 0.620400 -2.525200 -3.504900 0.356300 -1.245000 -0.709600 0.000000 -0.000000 0.000000 -95.728500 -6.113400 18.186899 6.300200 -10.762000 -0.594000 -0.000000 -0.000000 12.356400 15.618200 44.368900 11.060700 -7.125000 0.000000 -0.000000 -37.196899 72.464302 -25.216900 0.000000 -0.000000 0.000000 88.191200 -6.883500 -20.044600 -5.074600 8.710300 -0.386700 0.000000 0.000000 37.799999 -27.168699 33.670300 -15.883500 7.125000 -0.000000 -0.000000 2.908400 6.803100 3.236400 
